<?xml version="1.0" encoding="UTF-8"?>
<svg width="56px" height="56px" viewBox="0 0 56 56" version="1.1" xmlns="http://www.w3.org/2000/svg" xmlns:xlink="http://www.w3.org/1999/xlink">
    <!-- Generator: Sketch 41.2 (35397) - http://www.bohemiancoding.com/sketch -->
    <title>Group</title>
    <desc>Created with Sketch.</desc>
    <defs></defs>
    <g id="Page-1" stroke="none" stroke-width="1" fill="none" fill-rule="evenodd">
        <g id="Dashboard-Application-Empty--Light-UI" transform="translate(-816.000000, -870.000000)">
            <g id="Group" transform="translate(817.000000, 871.000000)">
                <circle id="Oval-3" stroke="#DFE3E6" fill="#FFFFFF" cx="27" cy="27" r="27"></circle>
                <g id="5d647166-56cc-41a6-a660-53219a05f3d7-featured" transform="translate(11.000000, 11.000000)">
                    <g id="api_connect_icon">
                        <circle id="Oval" fill="#4B68FA" cx="16" cy="16" r="15.9"></circle>
                        <circle id="Oval" fill="#FFFFFF" transform="translate(14.512174, 22.108362) rotate(-17.661000) translate(-14.512174, -22.108362) " cx="14.5121738" cy="22.1083621" r="0.7"></circle>
                        <polygon id="Shape" fill="#FFFFFF" transform="translate(12.703802, 19.195574) rotate(152.031000) translate(-12.703802, -19.195574) " points="12.2038017 16.0955736 12.7038017 16.0955736 12.7038017 22.2955736 12.2038017 22.2955736"></polygon>
                        <polygon id="Shape" fill="#FFFFFF" transform="translate(20.020698, 17.271669) rotate(153.770000) translate(-20.020698, -17.271669) " points="19.5206978 13.3716694 20.0206978 13.3716694 20.0206978 21.1716694 19.5206978 21.1716694"></polygon>
                        <polygon id="Shape" fill="#FFFFFF" transform="translate(16.272103, 17.806220) rotate(-154.565000) translate(-16.272103, -17.806220) " points="15.7721029 13.4562197 16.2721029 13.4562197 16.2721029 22.1562197 15.7721029 22.1562197"></polygon>
                        <circle id="Oval" fill="#FFFFFF" transform="translate(6.101609, 20.398816) rotate(-3.784000) translate(-6.101609, -20.398816) " cx="6.10160923" cy="20.3988161" r="0.699986"></circle>
                        <polygon id="Shape" fill="#FFFFFF" transform="translate(6.098946, 17.335818) rotate(-3.784000) translate(-6.098946, -17.335818) " points="5.59894557 14.2858784 6.09893557 14.2858784 6.09893557 20.3857564 5.59894557 20.3857564"></polygon>
                        <circle id="Oval" fill="#FFFFFF" transform="translate(10.085100, 25.387111) rotate(-38.316000) translate(-10.085100, -25.387111) " cx="10.0850997" cy="25.387111" r="0.7"></circle>
                        <polygon id="Shape" fill="#FFFFFF" transform="translate(8.439721, 22.862493) rotate(-38.316000) translate(-8.439721, -22.862493) " points="7.93972097 19.8124928 8.43972097 19.8124928 8.43972097 25.9124928 7.93972097 25.9124928"></polygon>
                        <circle id="Oval" fill="#FFFFFF" transform="translate(18.319169, 26.654304) rotate(-81.355000) translate(-18.319169, -26.654304) " cx="18.319169" cy="26.6543037" r="0.7"></circle>
                        <polygon id="Shape" fill="#FFFFFF" transform="translate(14.172257, 25.821013) rotate(-81.355000) translate(-14.172257, -25.821013) " points="13.6722565 22.0210134 14.1722565 22.0210134 14.1722565 29.6210134 13.6722565 29.6210134"></polygon>
                        <circle id="Oval" fill="#FFFFFF" transform="translate(8.645397, 8.314910) rotate(-62.433000) translate(-8.645397, -8.314910) " cx="8.64539661" cy="8.31491003" r="0.7"></circle>
                        <polygon id="Shape" fill="#FFFFFF" transform="translate(7.287789, 11.363776) rotate(27.567000) translate(-7.287789, -11.363776) " points="6.78778906 8.31377591 7.28778906 8.31377591 7.28778906 14.4137759 6.78778906 14.4137759"></polygon>
                        <circle id="Oval" fill="#FFFFFF" transform="translate(14.289205, 5.325318) rotate(-27.164000) translate(-14.289205, -5.325318) " cx="14.2892051" cy="5.32531771" r="0.7"></circle>
                        <polygon id="Shape" fill="#FFFFFF" transform="translate(11.480766, 7.119214) rotate(62.832000) translate(-11.480766, -7.119214) " points="10.9807662 4.06921379 11.4807662 4.06921379 11.4807662 10.1692138 10.9807662 10.1692138"></polygon>
                        <polygon id="Shape" fill="#FFFFFF" transform="translate(17.177062, 6.320168) rotate(104.725000) translate(-17.177062, -6.320168) " points="16.6770615 3.27016833 17.1770615 3.27016833 17.1770615 9.37016833 16.6770615 9.37016833"></polygon>
                        <circle id="Oval" fill="#FFFFFF" transform="translate(25.494446, 11.048328) rotate(-50.898000) translate(-25.494446, -11.048328) " cx="25.4944455" cy="11.0483281" r="0.7"></circle>
                        <polygon id="Shape" fill="#FFFFFF" transform="translate(22.753481, 9.130491) rotate(129.102000) translate(-22.753481, -9.130491) " points="22.253481 6.08049097 22.753481 6.08049097 22.753481 12.180491 22.253481 12.180491"></polygon>
                        <circle id="Oval" fill="#FFFFFF" transform="translate(26.300035, 17.404568) rotate(-7.068000) translate(-26.300035, -17.404568) " cx="26.3000351" cy="17.4045679" r="0.7"></circle>
                        <polygon id="Shape" fill="#FFFFFF" transform="translate(25.635682, 14.044851) rotate(172.932000) translate(-25.635682, -14.044851) " points="25.135682 10.9948513 25.635682 10.9948513 25.635682 17.0948513 25.135682 17.0948513"></polygon>
                        <circle id="Oval" fill="#FFFFFF" transform="translate(23.791620, 23.279238) rotate(-66.578000) translate(-23.791620, -23.279238) " cx="23.7916204" cy="23.279238" r="0.7"></circle>
                        <polygon id="Shape" fill="#FFFFFF" transform="translate(25.171552, 20.633238) rotate(23.422000) translate(-25.171552, -20.633238) " points="24.6715519 17.5832378 25.1715519 17.5832378 25.1715519 23.6832378 24.6715519 23.6832378"></polygon>
                        <polygon id="Shape" fill="#FFFFFF" transform="translate(24.438425, 19.183195) rotate(51.663000) translate(-24.438425, -19.183195) " points="23.9384254 16.5831947 24.4384254 16.5831947 24.4384254 21.7831947 23.9384254 21.7831947"></polygon>
                        <polygon id="Shape" fill="#FFFFFF" transform="translate(21.006698, 25.244399) rotate(58.560000) translate(-21.006698, -25.244399) " points="20.5066978 22.1943986 21.0066978 22.1943986 21.0066978 28.2943986 20.5066978 28.2943986"></polygon>
                        <polygon id="Shape" fill="#FFFFFF" transform="translate(10.665086, 8.532560) rotate(-77.056000) translate(-10.665086, -8.532560) " points="10.1650859 6.88255972 10.6650859 6.88255972 10.6650859 10.1825597 10.1650859 10.1825597"></polygon>
                        <polygon id="Shape" fill="#FFFFFF" transform="translate(8.925929, 11.721450) rotate(52.728000) translate(-8.925929, -11.721450) " points="8.42592938 7.97145001 8.92592938 7.97145001 8.92592938 15.47145 8.42592938 15.47145"></polygon>
                        <polygon id="Shape" fill="#FFFFFF" transform="translate(13.434669, 7.396035) rotate(31.450000) translate(-13.434669, -7.396035) " points="12.9346685 5.54603537 13.4346685 5.54603537 13.4346685 9.24603537 12.9346685 9.24603537"></polygon>
                        <polygon id="Shape" fill="#FFFFFF" transform="translate(12.226264, 23.525336) rotate(-126.920000) translate(-12.226264, -23.525336) " points="11.7262638 20.9753361 12.2262638 20.9753361 12.2262638 26.0753361 11.7262638 26.0753361"></polygon>
                        <polygon id="Shape" fill="#FFFFFF" transform="translate(16.223407, 24.525397) rotate(141.109000) translate(-16.223407, -24.525397) " points="15.7234074 21.7253973 16.2234074 21.7253973 16.2234074 27.3253973 15.7234074 27.3253973"></polygon>
                        <polygon id="Shape" fill="#FFFFFF" transform="translate(19.978184, 23.624333) rotate(-147.320000) translate(-19.978184, -23.624333) " points="19.478184 20.4243327 19.978184 20.4243327 19.978184 26.8243327 19.478184 26.8243327"></polygon>
                        <polygon id="Shape" fill="#FFFFFF" transform="translate(22.766953, 22.270263) rotate(144.106000) translate(-22.766953, -22.270263) " points="22.2669528 20.6202628 22.7669528 20.6202628 22.7669528 23.9202628 22.2669528 23.9202628"></polygon>
                        <polygon id="Shape" fill="#FFFFFF" transform="translate(10.208516, 20.949602) rotate(-78.492000) translate(-10.208516, -20.949602) " points="9.70851586 16.8496017 10.2085159 16.8496017 10.2085159 25.0496017 9.70851586 25.0496017"></polygon>
                        <polygon id="Shape" fill="#FFFFFF" transform="translate(18.171007, 21.688247) rotate(81.396000) translate(-18.171007, -21.688247) " points="17.6710075 18.0382472 18.1710075 18.0382472 18.1710075 25.3382472 17.6710075 25.3382472"></polygon>
                        <polygon id="Shape" fill="#FFFFFF" transform="translate(8.908581, 18.581038) rotate(53.080000) translate(-8.908581, -18.581038) " points="8.40858112 15.5310378 8.90858112 15.5310378 8.90858112 21.6310378 8.40858112 21.6310378"></polygon>
                        <circle id="Oval" fill="#FFFFFF" transform="translate(5.702165, 13.997274) rotate(-3.784000) translate(-5.702165, -13.997274) " cx="5.70216512" cy="13.9972738" r="0.699986"></circle>
                        <polygon id="Shape" fill="#FFFFFF" transform="translate(16.402349, 8.255983) rotate(76.220000) translate(-16.402349, -8.255983) " points="15.9023494 4.25598259 16.4023494 4.25598259 16.4023494 12.2559826 15.9023494 12.2559826"></polygon>
                        <polygon id="Shape" fill="#FFFFFF" transform="translate(24.940549, 16.171190) rotate(143.000000) translate(-24.940549, -16.171190) " points="24.4405495 14.3211895 24.9405495 14.3211895 24.9405495 18.0211895 24.4405495 18.0211895"></polygon>
                        <polygon id="Shape" fill="#FFFFFF" transform="translate(24.427288, 12.615337) rotate(-150.000000) translate(-24.427288, -12.615337) " points="23.9272879 10.8653372 24.4272879 10.8653372 24.4272879 14.3653372 23.9272879 14.3653372"></polygon>
                        <circle id="Oval" fill="#FFFFFF" transform="translate(21.992604, 20.825896) rotate(-37.000000) translate(-21.992604, -20.825896) " cx="21.9926042" cy="20.8258963" r="0.7"></circle>
                        <polygon id="Shape" fill="#FFFFFF" transform="translate(21.846857, 10.612494) rotate(155.844000) translate(-21.846857, -10.612494) " points="21.3468565 6.71249395 21.8468565 6.71249395 21.8468565 14.5124939 21.3468565 14.5124939"></polygon>
                        <polygon id="Shape" fill="#FFFFFF" transform="translate(22.758525, 17.431079) rotate(-164.796000) translate(-22.758525, -17.431079) " points="22.2585253 14.181079 22.7585253 14.181079 22.7585253 20.681079 22.2585253 20.681079"></polygon>
                        <polygon id="Shape" fill="#FFFFFF" transform="translate(8.401996, 15.332838) rotate(112.575000) translate(-8.401996, -15.332838) " points="7.90199556 12.3828382 8.40199556 12.3828382 8.40199556 18.2828382 7.90199556 18.2828382"></polygon>
                        <circle id="Oval" fill="#FFFFFF" transform="translate(5.708599, 13.944887) rotate(-67.425000) translate(-5.708599, -13.944887) " cx="5.70859887" cy="13.9448874" r="0.7"></circle>
                        <polygon id="Shape" fill="#FFFFFF" transform="translate(11.999405, 12.869421) rotate(4.841107) translate(-11.999405, -12.869421) " points="11.4994048 9.51953087 11.9993885 9.51953087 11.9993885 16.2193119 11.4994048 16.2193119"></polygon>
                        <circle id="Oval" fill="#FFFFFF" transform="translate(12.109797, 9.091014) rotate(-17.674000) translate(-12.109797, -9.091014) " cx="12.1097968" cy="9.09101436" r="0.7"></circle>
                        <polygon id="Shape" fill="#FFFFFF" transform="translate(14.983557, 11.535750) rotate(126.534000) translate(-14.983557, -11.535750) " points="14.4835565 7.58574986 14.9835565 7.58574986 14.9835565 15.4857499 14.4835565 15.4857499"></polygon>
                        <circle id="Oval" fill="#FFFFFF" transform="translate(20.594346, 6.942668) rotate(-75.275000) translate(-20.594346, -6.942668) " cx="20.5943461" cy="6.94266822" r="0.7"></circle>
                        <circle id="Oval" fill="#FFFFFF" transform="translate(20.606274, 6.961431) rotate(-57.520000) translate(-20.606274, -6.961431) " cx="20.6062736" cy="6.9614306" r="0.7"></circle>
                        <polygon id="Shape" fill="#FFFFFF" transform="translate(19.794236, 10.363897) rotate(16.443000) translate(-19.794236, -10.363897) " points="19.2942355 6.66389652 19.7942355 6.66389652 19.7942355 14.0638965 19.2942355 14.0638965"></polygon>
                        <polygon id="Shape" fill="#FFFFFF" transform="translate(21.236008, 14.212897) rotate(95.918000) translate(-21.236008, -14.212897) " points="20.7360076 11.4628971 21.2360076 11.4628971 21.2360076 16.9628971 20.7360076 16.9628971"></polygon>
                        <circle id="Oval" fill="#FFFFFF" transform="translate(23.844426, 14.304540) rotate(-78.329000) translate(-23.844426, -14.304540) " cx="23.8444258" cy="14.3045404" r="0.7"></circle>
                        <polygon id="Shape" fill="#FFFFFF" transform="translate(15.043133, 15.312325) rotate(69.929000) translate(-15.043133, -15.312325) " points="14.5431331 11.4623248 15.0431331 11.4623248 15.0431331 19.1623248 14.5431331 19.1623248"></polygon>
                        <circle id="Oval" fill="#FFFFFF" transform="translate(11.458025, 16.310066) rotate(-80.102000) translate(-11.458025, -16.310066) " cx="11.458025" cy="16.3100664" r="0.7"></circle>
                        <circle id="Oval" fill="#FFFFFF" transform="translate(18.535087, 13.676308) rotate(-78.329000) translate(-18.535087, -13.676308) " cx="18.5350866" cy="13.6763075" r="0.7"></circle>
                    </g>
                </g>
            </g>
        </g>
    </g>
</svg>